0
SECTION
2
HEADER
9
$INSUNITS
70
4
9
$ACADVER
1
AC1014
9
$HANDSEED
5
FFFF
0
ENDSEC
0
SECTION
2
TABLES
0
TABLE
2
VPORT
5
8
100
AcDbSymbolTable
0
ENDTAB
0
TABLE
2
LTYPE
5
5
100
AcDbSymbolTable
0
LTYPE
5
14
100
AcDbSymbolTableRecord
100
AcDbLinetypeTableRecord
2
BYBLOCK
70
0
0
LTYPE
5
15
100
AcDbSymbolTableRecord
100
AcDbLinetypeTableRecord
2
BYLAYER
70
0
0
ENDTAB
0
TABLE
2
LAYER
5
2
100
AcDbSymbolTable
70
2
0
LAYER
5
50
100
AcDbSymbolTableRecord
100
AcDbLayerTableRecord
2
0
70
0
6
CONTINUOUS
0
ENDTAB
0
TABLE
2
STYLE
5
3
100
AcDbSymbolTable
70
1
0
STYLE
5
11
100
AcDbSymbolTableRecord
100
AcDbTextStyleTableRecord
2
STANDARD
70
0
0
ENDTAB
0
TABLE
2
VIEW
5
6
100
AcDbSymbolTable
70
0
0
ENDTAB
0
TABLE
2
UCS
5
7
100
AcDbSymbolTable
70
0
0
ENDTAB
0
TABLE
2
APPID
5
9
100
AcDbSymbolTable
70
2
0
APPID
5
12
100
AcDbSymbolTableRecord
100
AcDbRegAppTableRecord
2
ACAD
70
0
0
ENDTAB
0
TABLE
2
DIMSTYLE
5
A
100
AcDbSymbolTable
70
1
0
ENDTAB
0
TABLE
2
BLOCK_RECORD
5
1
100
AcDbSymbolTable
70
1
0
BLOCK_RECORD
5
1F
100
AcDbSymbolTableRecord
100
AcDbBlockTableRecord
2
*MODEL_SPACE
0
BLOCK_RECORD
5
1B
100
AcDbSymbolTableRecord
100
AcDbBlockTableRecord
2
*PAPER_SPACE
0
ENDTAB
0
ENDSEC
0
SECTION
2
BLOCKS
0
BLOCK
5
20
100
AcDbEntity
100
AcDbBlockBegin
2
*MODEL_SPACE
0
ENDBLK
5
21
100
AcDbEntity
100
AcDbBlockEnd
0
BLOCK
5
1C
100
AcDbEntity
100
AcDbBlockBegin
2
*PAPER_SPACE
0
ENDBLK
5
1D
100
AcDbEntity
100
AcDbBlockEnd
0
ENDSEC
0
SECTION
2
ENTITIES
0
LWPOLYLINE
5
100
100
AcDbEntity
8
0
100
AcDbPolyline
90
120
70
1
43
0.0
10
62.951905283832936
20
-40.9641016151377
10
59.920816370587417
20
-39.214101615137707
10
63.92081637058741
20
-32.2858983848622
10
66.951905283832929
20
-34.035898384862186
10
69.888873943360338
20
-28.948919446323309
10
71.409160791270054
20
-23.275131687845274
10
68.028420399258323
20
-22.369265029986458
10
70.098972760078496
20
-14.641858419673909
10
73.479713152090213
20
-15.547725077532728
10
75.000000000000057
20
-9.8739373190545763
10
75
20
-3.999999999999948
10
71.500000000000014
20
-3.9999999999999503
10
71.500000000000014
20
4.0000000000000497
10
75
20
4.0000000000000515
10
75.000000000000028
20
9.8739373190548605
10
73.479713152090198
20
15.547725077532846
10
70.098972760078468
20
14.641858419674023
10
68.028420399258295
20
22.369265029986568
10
71.409160791270025
20
23.275131687845388
10
69.888873943360238
20
28.948919446323572
10
66.951905283832872
20
34.035898384862293
10
63.920816370587346
20
32.2858983848623
10
59.920816370587353
20
39.214101615137807
10
62.951905283832865
20
40.964101615137807
10
60.01493662430552
20
46.051080553676684
10
55.861435713737222
20
50.20458146424491
10
53.386561979584322
20
47.729707730092002
10
47.729707730091945
20
53.386561979584386
10
50.204581464244846
20
55.861435713737286
10
46.051080553676478
20
60.014936624305683
10
40.964101615137707
20
62.951905283832929
10
39.214101615137722
20
59.920816370587403
10
32.285898384862207
20
63.920816370587403
10
34.0358983848622
20
66.951905283832915
10
28.948919446323309
20
69.888873943360338
10
23.275131687845281
20
71.409160791270054
10
22.369265029986465
20
68.028420399258323
10
14.64185841967392
20
70.098972760078496
10
15.547725077532737
20
73.479713152090213
10
9.8739373190545781
20
75.000000000000057
10
3.9999999999999525
20
75
10
3.9999999999999547
20
71.500000000000014
10
-4.0000000000000462
20
71.500000000000014
10
-4.0000000000000471
20
75
10
-9.8739373190548729
20
75.000000000000014
10
-15.54772507753289
20
73.479713152090184
10
-14.641858419674065
20
70.098972760078453
10
-22.369265029986607
20
68.02842039925828
10
-23.275131687845434
20
71.409160791270011
10
-28.9489194463236
20
69.88887394336021
10
-34.035898384862321
20
66.951905283832858
10
-32.285898384862321
20
63.920816370587332
10
-39.214101615137828
20
59.920816370587325
10
-40.964101615137835
20
62.951905283832858
10
-46.051080553676741
20
60.014936624305484
10
-50.204581464244917
20
55.861435713737208
10
-47.729707730092017
20
53.3865619795843
10
-53.386561979584393
20
47.729707730091924
10
-55.861435713737293
20
50.204581464244825
10
-60.014936624305705
20
46.051080553676456
10
-62.95190528383295
20
40.964101615137665
10
-59.920816370587424
20
39.214101615137672
10
-63.920816370587417
20
32.285898384862158
10
-66.951905283832943
20
34.035898384862151
10
-69.888873943360338
20
28.948919446323281
10
-71.409160791270068
20
23.275131687845253
10
-68.028420399258337
20
22.36926502998643
10
-70.098972760078496
20
14.641858419673886
10
-73.479713152090227
20
15.547725077532704
10
-75.000000000000057
20
9.8739373190545336
10
-75
20
3.9999999999999392
10
-71.500000000000014
20
3.9999999999999414
10
-71.500000000000014
20
-4.0000000000000586
10
-75
20
-4.0000000000000613
10
-75.000000000000014
20
-9.8739373190548676
10
-73.479713152090184
20
-15.547725077532885
10
-70.098972760078453
20
-14.641858419674062
10
-68.02842039925828
20
-22.369265029986607
10
-71.409160791270011
20
-23.27513168784543
10
-69.88887394336021
20
-28.948919446323593
10
-66.951905283832858
20
-34.035898384862321
10
-63.920816370587332
20
-32.285898384862321
10
-59.920816370587325
20
-39.214101615137828
10
-62.951905283832858
20
-40.964101615137835
10
-60.014936624305484
20
-46.051080553676734
10
-55.861435713737187
20
-50.204581464244939
10
-53.386561979584286
20
-47.729707730092024
10
-47.72970773009191
20
-53.3865619795844
10
-50.204581464244804
20
-55.861435713737315
10
-46.051080553676456
20
-60.014936624305697
10
-40.964101615137693
20
-62.951905283832936
10
-39.214101615137707
20
-59.920816370587417
10
-32.285898384862193
20
-63.92081637058741
10
-34.035898384862179
20
-66.951905283832929
10
-28.948919446323302
20
-69.888873943360338
10
-23.275131687845256
20
-71.409160791270068
10
-22.36926502998644
20
-68.028420399258337
10
-14.641858419673889
20
-70.098972760078496
10
-15.547725077532707
20
-73.479713152090227
10
-9.8739373190545354
20
-75.000000000000057
10
-3.9999999999999436
20
-75
10
-3.9999999999999458
20
-71.500000000000014
10
4.0000000000000551
20
-71.500000000000014
10
4.0000000000000568
20
-75
10
9.873937319054864
20
-75.000000000000014
10
15.547725077532847
20
-73.479713152090198
10
14.641858419674026
20
-70.098972760078468
10
22.369265029986572
20
-68.028420399258295
10
23.275131687845395
20
-71.409160791270025
10
28.948919446323579
20
-69.888873943360238
10
34.035898384862314
20
-66.951905283832858
10
32.285898384862314
20
-63.920816370587339
10
39.214101615137821
20
-59.920816370587332
10
40.964101615137821
20
-62.951905283832858
10
46.051080553676726
20
-60.014936624305506
10
50.20458146424491
20
-55.861435713737215
10
47.729707730092002
20
-53.386561979584314
10
53.386561979584386
20
-47.729707730091931
10
55.861435713737286
20
-50.204581464244839
10
60.014936624305676
20
-46.051080553676485
0
ENDSEC
0
SECTION
2
OBJECTS
0
DICTIONARY
5
C
100
AcDbDictionary
3
ACAD_GROUP
350
D
3
ACAD_MLINESTYLE
350
17
0
DICTIONARY
5
D
100
AcDbDictionary
0
DICTIONARY
5
1A
330
C
100
AcDbDictionary
0
DICTIONARY
5
17
100
AcDbDictionary
0
ENDSEC
0
EOF
