0
SECTION
2
HEADER
9
$INSUNITS
70
4
9
$ACADVER
1
AC1014
9
$HANDSEED
5
FFFF
0
ENDSEC
0
SECTION
2
TABLES
0
TABLE
2
VPORT
5
8
100
AcDbSymbolTable
0
ENDTAB
0
TABLE
2
LTYPE
5
5
100
AcDbSymbolTable
0
LTYPE
5
14
100
AcDbSymbolTableRecord
100
AcDbLinetypeTableRecord
2
BYBLOCK
70
0
0
LTYPE
5
15
100
AcDbSymbolTableRecord
100
AcDbLinetypeTableRecord
2
BYLAYER
70
0
0
ENDTAB
0
TABLE
2
LAYER
5
2
100
AcDbSymbolTable
70
2
0
LAYER
5
50
100
AcDbSymbolTableRecord
100
AcDbLayerTableRecord
2
0
70
0
6
CONTINUOUS
0
ENDTAB
0
TABLE
2
STYLE
5
3
100
AcDbSymbolTable
70
1
0
STYLE
5
11
100
AcDbSymbolTableRecord
100
AcDbTextStyleTableRecord
2
STANDARD
70
0
0
ENDTAB
0
TABLE
2
VIEW
5
6
100
AcDbSymbolTable
70
0
0
ENDTAB
0
TABLE
2
UCS
5
7
100
AcDbSymbolTable
70
0
0
ENDTAB
0
TABLE
2
APPID
5
9
100
AcDbSymbolTable
70
2
0
APPID
5
12
100
AcDbSymbolTableRecord
100
AcDbRegAppTableRecord
2
ACAD
70
0
0
ENDTAB
0
TABLE
2
DIMSTYLE
5
A
100
AcDbSymbolTable
70
1
0
ENDTAB
0
TABLE
2
BLOCK_RECORD
5
1
100
AcDbSymbolTable
70
1
0
BLOCK_RECORD
5
1F
100
AcDbSymbolTableRecord
100
AcDbBlockTableRecord
2
*MODEL_SPACE
0
BLOCK_RECORD
5
1B
100
AcDbSymbolTableRecord
100
AcDbBlockTableRecord
2
*PAPER_SPACE
0
ENDTAB
0
ENDSEC
0
SECTION
2
BLOCKS
0
BLOCK
5
20
100
AcDbEntity
100
AcDbBlockBegin
2
*MODEL_SPACE
0
ENDBLK
5
21
100
AcDbEntity
100
AcDbBlockEnd
0
BLOCK
5
1C
100
AcDbEntity
100
AcDbBlockBegin
2
*PAPER_SPACE
0
ENDBLK
5
1D
100
AcDbEntity
100
AcDbBlockEnd
0
ENDSEC
0
SECTION
2
ENTITIES
0
LWPOLYLINE
5
100
100
AcDbEntity
8
0
100
AcDbPolyline
90
8
70
1
43
0.0
10
22
20
71.500000000000014
10
22
20
75.000000000000014
10
27
20
75.000000000000014
10
5.600000000000005
20
158.01215999999999
10
5.1000000000000023
20
158.01215999999999
10
5.100000000000029
20
75
10
10
20
75.000000000000014
10
10.000000000000011
20
71.500000000000014
0
LINE
5
101
100
AcDbEntity
8
0
100
AcDbLine
10
22.600000000000012
20
158.01216000000005
30
0
11
22.599999999999998
21
161.51216000000002
31
0
0
LINE
5
102
100
AcDbEntity
8
0
100
AcDbLine
10
10.600000000000009
20
158.01216000000005
30
0
11
5.6000000000000094
21
158.01216000000005
31
0
0
LINE
5
103
100
AcDbEntity
8
0
100
AcDbLine
10
26.999999999999996
20
75.000000000000028
30
0
11
27.5
21
75.000000000000028
31
0
0
LINE
5
104
100
AcDbEntity
8
0
100
AcDbLine
10
27.499999999999982
20
158.01216000000005
30
0
11
22.600000000000012
21
158.01216000000005
31
0
0
LINE
5
105
100
AcDbEntity
8
0
100
AcDbLine
10
10.600000000000009
20
161.51216000000002
30
0
11
10.600000000000009
21
158.01216000000005
31
0
0
LINE
5
106
100
AcDbEntity
8
0
100
AcDbLine
10
22.599999999999998
20
161.51216000000002
30
0
11
10.600000000000009
21
161.51216000000002
31
0
0
LINE
5
107
100
AcDbEntity
8
0
100
AcDbLine
10
27.5
20
75.000000000000028
30
0
11
27.499999999999982
21
158.01216000000005
31
0
0
LINE
5
108
100
AcDbEntity
8
0
100
AcDbLine
10
27.999999999999986
20
158.01215999999999
30
0
11
27.499999999999982
21
158.01215999999999
31
0
0
LINE
5
109
100
AcDbEntity
8
0
100
AcDbLine
10
32.399999999999977
20
75.000000000000014
30
0
11
32.399999999999991
21
71.500000000000014
31
0
0
LINE
5
110
100
AcDbEntity
8
0
100
AcDbLine
10
44.399999999999977
20
75.000000000000014
30
0
11
49.399999999999977
21
75.000000000000014
31
0
0
LINE
5
111
100
AcDbEntity
8
0
100
AcDbLine
10
49.399999999999977
20
75.000000000000014
30
0
11
27.999999999999986
21
158.01215999999999
31
0
0
LINE
5
112
100
AcDbEntity
8
0
100
AcDbLine
10
27.500000000000007
20
75
30
0
11
32.399999999999977
21
75.000000000000014
31
0
0
LINE
5
113
100
AcDbEntity
8
0
100
AcDbLine
10
49.899999999999984
20
75.000000000000028
30
0
11
49.899999999999963
21
158.01216000000005
31
0
0
LINE
5
114
100
AcDbEntity
8
0
100
AcDbLine
10
44.399999999999977
20
71.500000000000014
30
0
11
44.399999999999977
21
75.000000000000014
31
0
0
LINE
5
115
100
AcDbEntity
8
0
100
AcDbLine
10
49.399999999999977
20
75.000000000000028
30
0
11
49.899999999999984
21
75.000000000000028
31
0
0
LINE
5
116
100
AcDbEntity
8
0
100
AcDbLine
10
32.999999999999986
20
161.51216000000002
30
0
11
32.999999999999986
21
158.01216000000005
31
0
0
LINE
5
117
100
AcDbEntity
8
0
100
AcDbLine
10
44.999999999999993
20
158.01216000000005
30
0
11
44.999999999999986
21
161.51216000000002
31
0
0
LINE
5
118
100
AcDbEntity
8
0
100
AcDbLine
10
49.899999999999963
20
158.01216000000005
30
0
11
44.999999999999993
21
158.01216000000005
31
0
0
LINE
5
119
100
AcDbEntity
8
0
100
AcDbLine
10
32.999999999999986
20
158.01216000000005
30
0
11
27.999999999999989
21
158.01216000000005
31
0
0
LINE
5
120
100
AcDbEntity
8
0
100
AcDbLine
10
50.399999999999963
20
158.01215999999999
30
0
11
49.899999999999963
21
158.01215999999999
31
0
0
LINE
5
121
100
AcDbEntity
8
0
100
AcDbLine
10
54.799999999999962
20
75.000000000000014
30
0
11
54.799999999999969
21
71.500000000000014
31
0
0
LINE
5
122
100
AcDbEntity
8
0
100
AcDbLine
10
66.799999999999955
20
75.000000000000014
30
0
11
71.799999999999955
21
75.000000000000014
31
0
0
LINE
5
123
100
AcDbEntity
8
0
100
AcDbLine
10
71.799999999999955
20
75.000000000000014
30
0
11
50.399999999999963
21
158.01215999999999
31
0
0
LINE
5
124
100
AcDbEntity
8
0
100
AcDbLine
10
49.899999999999984
20
75
30
0
11
54.799999999999962
21
75.000000000000014
31
0
0
LINE
5
125
100
AcDbEntity
8
0
100
AcDbLine
10
72.299999999999955
20
75.000000000000028
30
0
11
72.29999999999994
21
158.01216000000005
31
0
0
LINE
5
126
100
AcDbEntity
8
0
100
AcDbLine
10
66.799999999999955
20
71.500000000000014
30
0
11
66.799999999999955
21
75.000000000000014
31
0
0
LINE
5
127
100
AcDbEntity
8
0
100
AcDbLine
10
71.799999999999955
20
75.000000000000028
30
0
11
72.299999999999955
21
75.000000000000028
31
0
0
LINE
5
128
100
AcDbEntity
8
0
100
AcDbLine
10
55.399999999999977
20
161.51216000000002
30
0
11
55.399999999999977
21
158.01216000000005
31
0
0
LINE
5
129
100
AcDbEntity
8
0
100
AcDbLine
10
67.399999999999963
20
158.01216000000005
30
0
11
67.399999999999963
21
161.51216000000002
31
0
0
LINE
5
130
100
AcDbEntity
8
0
100
AcDbLine
10
72.29999999999994
20
158.01216000000005
30
0
11
67.399999999999963
21
158.01216000000005
31
0
0
LINE
5
131
100
AcDbEntity
8
0
100
AcDbLine
10
55.399999999999977
20
158.01216000000005
30
0
11
50.399999999999977
21
158.01216000000005
31
0
0
LINE
5
132
100
AcDbEntity
8
0
100
AcDbLine
10
72.79999999999994
20
158.01215999999999
30
0
11
72.299999999999926
21
158.01215999999999
31
0
0
LINE
5
133
100
AcDbEntity
8
0
100
AcDbLine
10
77.199999999999932
20
75.000000000000014
30
0
11
77.199999999999946
21
71.500000000000014
31
0
0
LINE
5
134
100
AcDbEntity
8
0
100
AcDbLine
10
89.199999999999946
20
75.000000000000014
30
0
11
94.199999999999946
21
75.000000000000014
31
0
0
LINE
5
135
100
AcDbEntity
8
0
100
AcDbLine
10
94.199999999999946
20
75.000000000000014
30
0
11
72.79999999999994
21
158.01215999999999
31
0
0
LINE
5
136
100
AcDbEntity
8
0
100
AcDbLine
10
72.299999999999969
20
75
30
0
11
77.199999999999932
21
75.000000000000014
31
0
0
LINE
5
137
100
AcDbEntity
8
0
100
AcDbLine
10
94.699999999999932
20
75.000000000000028
30
0
11
94.699999999999918
21
158.01216000000005
31
0
0
LINE
5
138
100
AcDbEntity
8
0
100
AcDbLine
10
89.199999999999946
20
71.500000000000014
30
0
11
89.199999999999946
21
75.000000000000014
31
0
0
LINE
5
139
100
AcDbEntity
8
0
100
AcDbLine
10
94.199999999999932
20
75.000000000000028
30
0
11
94.699999999999932
21
75.000000000000028
31
0
0
LINE
5
140
100
AcDbEntity
8
0
100
AcDbLine
10
77.79999999999994
20
161.51216000000002
30
0
11
77.79999999999994
21
158.01216000000005
31
0
0
LINE
5
141
100
AcDbEntity
8
0
100
AcDbLine
10
89.799999999999955
20
158.01216000000005
30
0
11
89.799999999999926
21
161.51216000000002
31
0
0
LINE
5
142
100
AcDbEntity
8
0
100
AcDbLine
10
94.699999999999918
20
158.01216000000005
30
0
11
89.799999999999955
21
158.01216000000005
31
0
0
LINE
5
143
100
AcDbEntity
8
0
100
AcDbLine
10
77.79999999999994
20
158.01216000000005
30
0
11
72.79999999999994
21
158.01216000000005
31
0
0
LINE
5
144
100
AcDbEntity
8
0
100
AcDbLine
10
95.199999999999932
20
158.01215999999999
30
0
11
94.699999999999918
21
158.01215999999999
31
0
0
LINE
5
145
100
AcDbEntity
8
0
100
AcDbLine
10
99.599999999999923
20
75.000000000000014
30
0
11
99.599999999999937
21
71.500000000000014
31
0
0
LINE
5
146
100
AcDbEntity
8
0
100
AcDbLine
10
111.59999999999994
20
75.000000000000014
30
0
11
116.59999999999994
21
75.000000000000014
31
0
0
LINE
5
147
100
AcDbEntity
8
0
100
AcDbLine
10
116.59999999999994
20
75.000000000000014
30
0
11
95.199999999999932
21
158.01215999999999
31
0
0
LINE
5
148
100
AcDbEntity
8
0
100
AcDbLine
10
94.69999999999996
20
75
30
0
11
99.599999999999923
21
75.000000000000014
31
0
0
LINE
5
149
100
AcDbEntity
8
0
100
AcDbLine
10
117.09999999999992
20
75.000000000000028
30
0
11
117.09999999999991
21
158.01216000000005
31
0
0
LINE
5
150
100
AcDbEntity
8
0
100
AcDbLine
10
111.59999999999994
20
71.500000000000014
30
0
11
111.59999999999994
21
75.000000000000014
31
0
0
LINE
5
151
100
AcDbEntity
8
0
100
AcDbLine
10
116.59999999999991
20
75.000000000000028
30
0
11
117.09999999999992
21
75.000000000000028
31
0
0
LINE
5
152
100
AcDbEntity
8
0
100
AcDbLine
10
100.19999999999993
20
161.51216000000002
30
0
11
100.19999999999993
21
158.01216000000005
31
0
0
LINE
5
153
100
AcDbEntity
8
0
100
AcDbLine
10
112.19999999999993
20
158.01216000000005
30
0
11
112.19999999999992
21
161.51216000000002
31
0
0
LINE
5
154
100
AcDbEntity
8
0
100
AcDbLine
10
117.09999999999991
20
158.01216000000005
30
0
11
112.19999999999993
21
158.01216000000005
31
0
0
LINE
5
155
100
AcDbEntity
8
0
100
AcDbLine
10
100.19999999999993
20
158.01216000000005
30
0
11
95.199999999999932
21
158.01216000000005
31
0
0
LINE
5
156
100
AcDbEntity
8
0
100
AcDbLine
10
5.600000000000005
20
68
30
0
11
5.1000000000000023
21
68
31
0
0
LINE
5
157
100
AcDbEntity
8
0
100
AcDbLine
10
10
20
-15.012159999999986
30
0
11
10.000000000000011
21
-18.51215999999998
31
0
0
LINE
5
158
100
AcDbEntity
8
0
100
AcDbLine
10
22
20
-15.012159999999986
30
0
11
27
21
-15.012159999999986
31
0
0
LINE
5
159
100
AcDbEntity
8
0
100
AcDbLine
10
27
20
-15.012159999999986
30
0
11
5.600000000000005
21
68
31
0
0
LINE
5
160
100
AcDbEntity
8
0
100
AcDbLine
10
5.100000000000029
20
-15.012159999999994
30
0
11
10
21
-15.012159999999986
31
0
0
LINE
5
161
100
AcDbEntity
8
0
100
AcDbLine
10
27.5
20
-15.012159999999959
30
0
11
27.499999999999982
21
68.000000000000043
31
0
0
LINE
5
162
100
AcDbEntity
8
0
100
AcDbLine
10
22
20
-18.51215999999998
30
0
11
22
21
-15.012159999999986
31
0
0
LINE
5
163
100
AcDbEntity
8
0
100
AcDbLine
10
26.999999999999996
20
-15.012159999999959
30
0
11
27.5
21
-15.012159999999959
31
0
0
LINE
5
164
100
AcDbEntity
8
0
100
AcDbLine
10
10.600000000000009
20
71.500000000000028
30
0
11
10.600000000000009
21
68.000000000000043
31
0
0
LINE
5
165
100
AcDbEntity
8
0
100
AcDbLine
10
22.600000000000012
20
68.000000000000043
30
0
11
22.599999999999998
21
71.500000000000028
31
0
0
LINE
5
166
100
AcDbEntity
8
0
100
AcDbLine
10
27.499999999999982
20
68.000000000000043
30
0
11
22.600000000000012
21
68.000000000000043
31
0
0
LINE
5
167
100
AcDbEntity
8
0
100
AcDbLine
10
10.600000000000009
20
68.000000000000043
30
0
11
5.6000000000000094
21
68.000000000000043
31
0
0
LINE
5
168
100
AcDbEntity
8
0
100
AcDbLine
10
27.999999999999986
20
68
30
0
11
27.499999999999982
21
68
31
0
0
LINE
5
169
100
AcDbEntity
8
0
100
AcDbLine
10
32.399999999999977
20
-15.012159999999986
30
0
11
32.399999999999991
21
-18.51215999999998
31
0
0
LINE
5
170
100
AcDbEntity
8
0
100
AcDbLine
10
44.399999999999977
20
-15.012159999999986
30
0
11
49.399999999999977
21
-15.012159999999986
31
0
0
LINE
5
171
100
AcDbEntity
8
0
100
AcDbLine
10
49.399999999999977
20
-15.012159999999986
30
0
11
27.999999999999986
21
68
31
0
0
LINE
5
172
100
AcDbEntity
8
0
100
AcDbLine
10
27.500000000000007
20
-15.012159999999994
30
0
11
32.399999999999977
21
-15.012159999999986
31
0
0
LINE
5
173
100
AcDbEntity
8
0
100
AcDbLine
10
49.899999999999984
20
-15.012159999999959
30
0
11
49.899999999999963
21
68.000000000000043
31
0
0
LINE
5
174
100
AcDbEntity
8
0
100
AcDbLine
10
44.399999999999977
20
-18.51215999999998
30
0
11
44.399999999999977
21
-15.012159999999986
31
0
0
LINE
5
175
100
AcDbEntity
8
0
100
AcDbLine
10
49.399999999999977
20
-15.012159999999959
30
0
11
49.899999999999984
21
-15.012159999999959
31
0
0
LINE
5
176
100
AcDbEntity
8
0
100
AcDbLine
10
32.999999999999986
20
71.500000000000028
30
0
11
32.999999999999986
21
68.000000000000043
31
0
0
LINE
5
177
100
AcDbEntity
8
0
100
AcDbLine
10
44.999999999999993
20
68.000000000000043
30
0
11
44.999999999999986
21
71.500000000000028
31
0
0
LINE
5
178
100
AcDbEntity
8
0
100
AcDbLine
10
49.899999999999963
20
68.000000000000043
30
0
11
44.999999999999993
21
68.000000000000043
31
0
0
LINE
5
179
100
AcDbEntity
8
0
100
AcDbLine
10
32.999999999999986
20
68.000000000000043
30
0
11
27.999999999999989
21
68.000000000000043
31
0
0
LINE
5
180
100
AcDbEntity
8
0
100
AcDbLine
10
50.399999999999963
20
68
30
0
11
49.899999999999963
21
68
31
0
0
LINE
5
181
100
AcDbEntity
8
0
100
AcDbLine
10
54.799999999999962
20
-15.012159999999986
30
0
11
54.799999999999969
21
-18.51215999999998
31
0
0
LINE
5
182
100
AcDbEntity
8
0
100
AcDbLine
10
66.799999999999955
20
-15.012159999999986
30
0
11
71.799999999999955
21
-15.012159999999986
31
0
0
LINE
5
183
100
AcDbEntity
8
0
100
AcDbLine
10
71.799999999999955
20
-15.012159999999986
30
0
11
50.399999999999963
21
68
31
0
0
LINE
5
184
100
AcDbEntity
8
0
100
AcDbLine
10
49.899999999999984
20
-15.012159999999994
30
0
11
54.799999999999962
21
-15.012159999999986
31
0
0
LINE
5
185
100
AcDbEntity
8
0
100
AcDbLine
10
72.299999999999955
20
-15.012159999999959
30
0
11
72.29999999999994
21
68.000000000000043
31
0
0
LINE
5
186
100
AcDbEntity
8
0
100
AcDbLine
10
66.799999999999955
20
-18.51215999999998
30
0
11
66.799999999999955
21
-15.012159999999986
31
0
0
LINE
5
187
100
AcDbEntity
8
0
100
AcDbLine
10
71.799999999999955
20
-15.012159999999959
30
0
11
72.299999999999955
21
-15.012159999999959
31
0
0
LINE
5
188
100
AcDbEntity
8
0
100
AcDbLine
10
55.399999999999977
20
71.500000000000028
30
0
11
55.399999999999977
21
68.000000000000043
31
0
0
LINE
5
189
100
AcDbEntity
8
0
100
AcDbLine
10
67.399999999999963
20
68.000000000000043
30
0
11
67.399999999999963
21
71.500000000000028
31
0
0
LINE
5
190
100
AcDbEntity
8
0
100
AcDbLine
10
72.29999999999994
20
68.000000000000043
30
0
11
67.399999999999963
21
68.000000000000043
31
0
0
LINE
5
191
100
AcDbEntity
8
0
100
AcDbLine
10
55.399999999999977
20
68.000000000000043
30
0
11
50.399999999999977
21
68.000000000000043
31
0
0
LINE
5
192
100
AcDbEntity
8
0
100
AcDbLine
10
72.79999999999994
20
68
30
0
11
72.299999999999926
21
68
31
0
0
LINE
5
193
100
AcDbEntity
8
0
100
AcDbLine
10
77.199999999999932
20
-15.012159999999986
30
0
11
77.199999999999946
21
-18.51215999999998
31
0
0
LINE
5
194
100
AcDbEntity
8
0
100
AcDbLine
10
89.199999999999946
20
-15.012159999999986
30
0
11
94.199999999999946
21
-15.012159999999986
31
0
0
LINE
5
195
100
AcDbEntity
8
0
100
AcDbLine
10
94.199999999999946
20
-15.012159999999986
30
0
11
72.79999999999994
21
68
31
0
0
LINE
5
196
100
AcDbEntity
8
0
100
AcDbLine
10
72.299999999999969
20
-15.012159999999994
30
0
11
77.199999999999932
21
-15.012159999999986
31
0
0
LINE
5
197
100
AcDbEntity
8
0
100
AcDbLine
10
94.699999999999932
20
-15.012159999999959
30
0
11
94.699999999999918
21
68.000000000000043
31
0
0
LINE
5
198
100
AcDbEntity
8
0
100
AcDbLine
10
89.199999999999946
20
-18.51215999999998
30
0
11
89.199999999999946
21
-15.012159999999986
31
0
0
LINE
5
199
100
AcDbEntity
8
0
100
AcDbLine
10
94.199999999999932
20
-15.012159999999959
30
0
11
94.699999999999932
21
-15.012159999999959
31
0
0
LINE
5
200
100
AcDbEntity
8
0
100
AcDbLine
10
77.79999999999994
20
71.500000000000028
30
0
11
77.79999999999994
21
68.000000000000043
31
0
0
LINE
5
201
100
AcDbEntity
8
0
100
AcDbLine
10
89.799999999999955
20
68.000000000000043
30
0
11
89.799999999999926
21
71.500000000000028
31
0
0
LINE
5
202
100
AcDbEntity
8
0
100
AcDbLine
10
94.699999999999918
20
68.000000000000043
30
0
11
89.799999999999955
21
68.000000000000043
31
0
0
LINE
5
203
100
AcDbEntity
8
0
100
AcDbLine
10
77.79999999999994
20
68.000000000000043
30
0
11
72.79999999999994
21
68.000000000000043
31
0
0
LINE
5
204
100
AcDbEntity
8
0
100
AcDbLine
10
95.199999999999932
20
68
30
0
11
94.699999999999918
21
68
31
0
0
LINE
5
205
100
AcDbEntity
8
0
100
AcDbLine
10
99.599999999999923
20
-15.012159999999986
30
0
11
99.599999999999937
21
-18.51215999999998
31
0
0
LINE
5
206
100
AcDbEntity
8
0
100
AcDbLine
10
111.59999999999994
20
-15.012159999999986
30
0
11
116.59999999999994
21
-15.012159999999986
31
0
0
LINE
5
207
100
AcDbEntity
8
0
100
AcDbLine
10
116.59999999999994
20
-15.012159999999986
30
0
11
95.199999999999932
21
68
31
0
0
LINE
5
208
100
AcDbEntity
8
0
100
AcDbLine
10
94.69999999999996
20
-15.012159999999994
30
0
11
99.599999999999923
21
-15.012159999999986
31
0
0
LINE
5
209
100
AcDbEntity
8
0
100
AcDbLine
10
117.09999999999992
20
-15.012159999999959
30
0
11
117.09999999999991
21
68.000000000000043
31
0
0
LINE
5
210
100
AcDbEntity
8
0
100
AcDbLine
10
111.59999999999994
20
-18.51215999999998
30
0
11
111.59999999999994
21
-15.012159999999986
31
0
0
LINE
5
211
100
AcDbEntity
8
0
100
AcDbLine
10
116.59999999999991
20
-15.012159999999959
30
0
11
117.09999999999992
21
-15.012159999999959
31
0
0
LINE
5
212
100
AcDbEntity
8
0
100
AcDbLine
10
100.19999999999993
20
71.500000000000028
30
0
11
100.19999999999993
21
68.000000000000043
31
0
0
LINE
5
213
100
AcDbEntity
8
0
100
AcDbLine
10
112.19999999999993
20
68.000000000000043
30
0
11
112.19999999999992
21
71.500000000000028
31
0
0
LINE
5
214
100
AcDbEntity
8
0
100
AcDbLine
10
117.09999999999991
20
68.000000000000043
30
0
11
112.19999999999993
21
68.000000000000043
31
0
0
LINE
5
215
100
AcDbEntity
8
0
100
AcDbLine
10
100.19999999999993
20
68.000000000000043
30
0
11
95.199999999999932
21
68.000000000000043
31
0
0
LINE
5
216
100
AcDbEntity
8
0
100
AcDbLine
10
5.600000000000005
20
-22.012159999999987
30
0
11
5.1000000000000023
21
-22.012159999999987
31
0
0
LINE
5
217
100
AcDbEntity
8
0
100
AcDbLine
10
10
20
-105.02431999999999
30
0
11
10.000000000000011
21
-108.52431999999996
31
0
0
LINE
5
218
100
AcDbEntity
8
0
100
AcDbLine
10
22
20
-105.02431999999999
30
0
11
27
21
-105.02431999999999
31
0
0
LINE
5
219
100
AcDbEntity
8
0
100
AcDbLine
10
27
20
-105.02431999999999
30
0
11
5.600000000000005
21
-22.012159999999987
31
0
0
LINE
5
220
100
AcDbEntity
8
0
100
AcDbLine
10
5.100000000000029
20
-105.02431999999999
30
0
11
10
21
-105.02431999999999
31
0
0
LINE
5
221
100
AcDbEntity
8
0
100
AcDbLine
10
27.5
20
-105.02431999999996
30
0
11
27.499999999999982
21
-22.012159999999952
31
0
0
LINE
5
222
100
AcDbEntity
8
0
100
AcDbLine
10
22
20
-108.52431999999996
30
0
11
22
21
-105.02431999999999
31
0
0
LINE
5
223
100
AcDbEntity
8
0
100
AcDbLine
10
26.999999999999996
20
-105.02431999999996
30
0
11
27.5
21
-105.02431999999996
31
0
0
LINE
5
224
100
AcDbEntity
8
0
100
AcDbLine
10
10.600000000000009
20
-18.512159999999973
30
0
11
10.600000000000009
21
-22.012159999999952
31
0
0
LINE
5
225
100
AcDbEntity
8
0
100
AcDbLine
10
22.600000000000012
20
-22.012159999999952
30
0
11
22.599999999999998
21
-18.512159999999973
31
0
0
LINE
5
226
100
AcDbEntity
8
0
100
AcDbLine
10
27.499999999999982
20
-22.012159999999952
30
0
11
22.600000000000012
21
-22.012159999999952
31
0
0
LINE
5
227
100
AcDbEntity
8
0
100
AcDbLine
10
10.600000000000009
20
-22.012159999999952
30
0
11
5.6000000000000094
21
-22.012159999999952
31
0
0
LINE
5
228
100
AcDbEntity
8
0
100
AcDbLine
10
27.999999999999986
20
-22.012159999999987
30
0
11
27.499999999999982
21
-22.012159999999987
31
0
0
LINE
5
229
100
AcDbEntity
8
0
100
AcDbLine
10
32.399999999999977
20
-105.02431999999999
30
0
11
32.399999999999991
21
-108.52431999999996
31
0
0
LINE
5
230
100
AcDbEntity
8
0
100
AcDbLine
10
44.399999999999977
20
-105.02431999999999
30
0
11
49.399999999999977
21
-105.02431999999999
31
0
0
LINE
5
231
100
AcDbEntity
8
0
100
AcDbLine
10
49.399999999999977
20
-105.02431999999999
30
0
11
27.999999999999986
21
-22.012159999999987
31
0
0
LINE
5
232
100
AcDbEntity
8
0
100
AcDbLine
10
27.500000000000007
20
-105.02431999999999
30
0
11
32.399999999999977
21
-105.02431999999999
31
0
0
LINE
5
233
100
AcDbEntity
8
0
100
AcDbLine
10
49.899999999999984
20
-105.02431999999996
30
0
11
49.899999999999963
21
-22.012159999999952
31
0
0
LINE
5
234
100
AcDbEntity
8
0
100
AcDbLine
10
44.399999999999977
20
-108.52431999999996
30
0
11
44.399999999999977
21
-105.02431999999999
31
0
0
LINE
5
235
100
AcDbEntity
8
0
100
AcDbLine
10
49.399999999999977
20
-105.02431999999996
30
0
11
49.899999999999984
21
-105.02431999999996
31
0
0
LINE
5
236
100
AcDbEntity
8
0
100
AcDbLine
10
32.999999999999986
20
-18.512159999999973
30
0
11
32.999999999999986
21
-22.012159999999952
31
0
0
LINE
5
237
100
AcDbEntity
8
0
100
AcDbLine
10
44.999999999999993
20
-22.012159999999952
30
0
11
44.999999999999986
21
-18.512159999999973
31
0
0
LINE
5
238
100
AcDbEntity
8
0
100
AcDbLine
10
49.899999999999963
20
-22.012159999999952
30
0
11
44.999999999999993
21
-22.012159999999952
31
0
0
LINE
5
239
100
AcDbEntity
8
0
100
AcDbLine
10
32.999999999999986
20
-22.012159999999952
30
0
11
27.999999999999989
21
-22.012159999999952
31
0
0
LINE
5
240
100
AcDbEntity
8
0
100
AcDbLine
10
50.399999999999963
20
-22.012159999999987
30
0
11
49.899999999999963
21
-22.012159999999987
31
0
0
LINE
5
241
100
AcDbEntity
8
0
100
AcDbLine
10
54.799999999999962
20
-105.02431999999999
30
0
11
54.799999999999969
21
-108.52431999999996
31
0
0
LINE
5
242
100
AcDbEntity
8
0
100
AcDbLine
10
66.799999999999955
20
-105.02431999999999
30
0
11
71.799999999999955
21
-105.02431999999999
31
0
0
LINE
5
243
100
AcDbEntity
8
0
100
AcDbLine
10
71.799999999999955
20
-105.02431999999999
30
0
11
50.399999999999963
21
-22.012159999999987
31
0
0
LINE
5
244
100
AcDbEntity
8
0
100
AcDbLine
10
49.899999999999984
20
-105.02431999999999
30
0
11
54.799999999999962
21
-105.02431999999999
31
0
0
LINE
5
245
100
AcDbEntity
8
0
100
AcDbLine
10
72.299999999999955
20
-105.02431999999996
30
0
11
72.29999999999994
21
-22.012159999999952
31
0
0
LINE
5
246
100
AcDbEntity
8
0
100
AcDbLine
10
66.799999999999955
20
-108.52431999999996
30
0
11
66.799999999999955
21
-105.02431999999999
31
0
0
LINE
5
247
100
AcDbEntity
8
0
100
AcDbLine
10
71.799999999999955
20
-105.02431999999996
30
0
11
72.299999999999955
21
-105.02431999999996
31
0
0
LINE
5
248
100
AcDbEntity
8
0
100
AcDbLine
10
55.399999999999977
20
-18.512159999999973
30
0
11
55.399999999999977
21
-22.012159999999952
31
0
0
LINE
5
249
100
AcDbEntity
8
0
100
AcDbLine
10
67.399999999999963
20
-22.012159999999952
30
0
11
67.399999999999963
21
-18.512159999999973
31
0
0
LINE
5
250
100
AcDbEntity
8
0
100
AcDbLine
10
72.29999999999994
20
-22.012159999999952
30
0
11
67.399999999999963
21
-22.012159999999952
31
0
0
LINE
5
251
100
AcDbEntity
8
0
100
AcDbLine
10
55.399999999999977
20
-22.012159999999952
30
0
11
50.399999999999977
21
-22.012159999999952
31
0
0
LINE
5
252
100
AcDbEntity
8
0
100
AcDbLine
10
72.79999999999994
20
-22.012159999999987
30
0
11
72.299999999999926
21
-22.012159999999987
31
0
0
LINE
5
253
100
AcDbEntity
8
0
100
AcDbLine
10
77.199999999999932
20
-105.02431999999999
30
0
11
77.199999999999946
21
-108.52431999999996
31
0
0
LINE
5
254
100
AcDbEntity
8
0
100
AcDbLine
10
89.199999999999946
20
-105.02431999999999
30
0
11
94.199999999999946
21
-105.02431999999999
31
0
0
LINE
5
255
100
AcDbEntity
8
0
100
AcDbLine
10
94.199999999999946
20
-105.02431999999999
30
0
11
72.79999999999994
21
-22.012159999999987
31
0
0
LINE
5
256
100
AcDbEntity
8
0
100
AcDbLine
10
72.299999999999969
20
-105.02431999999999
30
0
11
77.199999999999932
21
-105.02431999999999
31
0
0
LINE
5
257
100
AcDbEntity
8
0
100
AcDbLine
10
94.699999999999932
20
-105.02431999999996
30
0
11
94.699999999999918
21
-22.012159999999952
31
0
0
LINE
5
258
100
AcDbEntity
8
0
100
AcDbLine
10
89.199999999999946
20
-108.52431999999996
30
0
11
89.199999999999946
21
-105.02431999999999
31
0
0
LINE
5
259
100
AcDbEntity
8
0
100
AcDbLine
10
94.199999999999932
20
-105.02431999999996
30
0
11
94.699999999999932
21
-105.02431999999996
31
0
0
LINE
5
260
100
AcDbEntity
8
0
100
AcDbLine
10
77.79999999999994
20
-18.512159999999973
30
0
11
77.79999999999994
21
-22.012159999999952
31
0
0
LINE
5
261
100
AcDbEntity
8
0
100
AcDbLine
10
89.799999999999955
20
-22.012159999999952
30
0
11
89.799999999999926
21
-18.512159999999973
31
0
0
LINE
5
262
100
AcDbEntity
8
0
100
AcDbLine
10
94.699999999999918
20
-22.012159999999952
30
0
11
89.799999999999955
21
-22.012159999999952
31
0
0
LINE
5
263
100
AcDbEntity
8
0
100
AcDbLine
10
77.79999999999994
20
-22.012159999999952
30
0
11
72.79999999999994
21
-22.012159999999952
31
0
0
LINE
5
264
100
AcDbEntity
8
0
100
AcDbLine
10
95.199999999999932
20
-22.012159999999987
30
0
11
94.699999999999918
21
-22.012159999999987
31
0
0
LINE
5
265
100
AcDbEntity
8
0
100
AcDbLine
10
99.599999999999923
20
-105.02431999999999
30
0
11
99.599999999999937
21
-108.52431999999996
31
0
0
LINE
5
266
100
AcDbEntity
8
0
100
AcDbLine
10
111.59999999999994
20
-105.02431999999999
30
0
11
116.59999999999994
21
-105.02431999999999
31
0
0
LINE
5
267
100
AcDbEntity
8
0
100
AcDbLine
10
116.59999999999994
20
-105.02431999999999
30
0
11
95.199999999999932
21
-22.012159999999987
31
0
0
LINE
5
268
100
AcDbEntity
8
0
100
AcDbLine
10
94.69999999999996
20
-105.02431999999999
30
0
11
99.599999999999923
21
-105.02431999999999
31
0
0
LINE
5
269
100
AcDbEntity
8
0
100
AcDbLine
10
117.09999999999992
20
-105.02431999999996
30
0
11
117.09999999999991
21
-22.012159999999952
31
0
0
LINE
5
270
100
AcDbEntity
8
0
100
AcDbLine
10
111.59999999999994
20
-108.52431999999996
30
0
11
111.59999999999994
21
-105.02431999999999
31
0
0
LINE
5
271
100
AcDbEntity
8
0
100
AcDbLine
10
116.59999999999991
20
-105.02431999999996
30
0
11
117.09999999999992
21
-105.02431999999996
31
0
0
LINE
5
272
100
AcDbEntity
8
0
100
AcDbLine
10
100.19999999999993
20
-18.512159999999973
30
0
11
100.19999999999993
21
-22.012159999999952
31
0
0
LINE
5
273
100
AcDbEntity
8
0
100
AcDbLine
10
112.19999999999993
20
-22.012159999999952
30
0
11
112.19999999999992
21
-18.512159999999973
31
0
0
LINE
5
274
100
AcDbEntity
8
0
100
AcDbLine
10
117.09999999999991
20
-22.012159999999952
30
0
11
112.19999999999993
21
-22.012159999999952
31
0
0
LINE
5
275
100
AcDbEntity
8
0
100
AcDbLine
10
100.19999999999993
20
-22.012159999999952
30
0
11
95.199999999999932
21
-22.012159999999952
31
0
0
LINE
5
276
100
AcDbEntity
8
0
100
AcDbLine
10
5.6000000000000094
20
68.000000000000043
30
0
11
5.100000000000029
21
-15.012159999999994
31
0
0
LINE
5
277
100
AcDbEntity
8
0
100
AcDbLine
10
10.000000000000011
20
-18.51215999999998
30
0
11
22.599999999999998
21
-18.512159999999973
31
0
0
LINE
5
278
100
AcDbEntity
8
0
100
AcDbLine
10
32.399999999999991
20
-18.51215999999998
30
0
11
44.999999999999986
21
-18.512159999999973
31
0
0
LINE
5
279
100
AcDbEntity
8
0
100
AcDbLine
10
54.799999999999969
20
-18.51215999999998
30
0
11
67.399999999999963
21
-18.512159999999973
31
0
0
LINE
5
280
100
AcDbEntity
8
0
100
AcDbLine
10
77.199999999999946
20
-18.51215999999998
30
0
11
89.799999999999926
21
-18.512159999999973
31
0
0
LINE
5
281
100
AcDbEntity
8
0
100
AcDbLine
10
99.599999999999937
20
-18.51215999999998
30
0
11
112.19999999999992
21
-18.512159999999973
31
0
0
LINE
5
282
100
AcDbEntity
8
0
100
AcDbLine
10
10.000000000000011
20
-108.52431999999996
30
0
11
22
21
-108.52431999999996
31
0
0
LINE
5
283
100
AcDbEntity
8
0
100
AcDbLine
10
32.399999999999991
20
-108.52431999999996
30
0
11
44.399999999999977
21
-108.52431999999996
31
0
0
LINE
5
284
100
AcDbEntity
8
0
100
AcDbLine
10
54.799999999999969
20
-108.52431999999996
30
0
11
66.799999999999955
21
-108.52431999999996
31
0
0
LINE
5
285
100
AcDbEntity
8
0
100
AcDbLine
10
77.199999999999946
20
-108.52431999999996
30
0
11
89.199999999999946
21
-108.52431999999996
31
0
0
LINE
5
286
100
AcDbEntity
8
0
100
AcDbLine
10
99.599999999999937
20
-108.52431999999996
30
0
11
111.59999999999994
21
-108.52431999999996
31
0
0
LINE
5
287
100
AcDbEntity
8
0
100
AcDbLine
10
5.100000000000029
20
-105.02431999999999
30
0
11
5.6000000000000094
21
-22.012159999999952
31
0
0
LINE
5
288
100
AcDbEntity
8
0
100
AcDbLine
10
22
20
71.500000000000014
30
0
11
22.599999999999998
21
71.500000000000028
31
0
0
LINE
5
289
100
AcDbEntity
8
0
100
AcDbLine
10
32.399999999999991
20
71.500000000000014
30
0
11
44.999999999999986
21
71.500000000000028
31
0
0
LINE
5
290
100
AcDbEntity
8
0
100
AcDbLine
10
54.799999999999969
20
71.500000000000014
30
0
11
67.399999999999963
21
71.500000000000028
31
0
0
LINE
5
291
100
AcDbEntity
8
0
100
AcDbLine
10
77.199999999999946
20
71.500000000000014
30
0
11
89.799999999999926
21
71.500000000000028
31
0
0
LINE
5
292
100
AcDbEntity
8
0
100
AcDbLine
10
99.599999999999937
20
71.500000000000014
30
0
11
112.19999999999992
21
71.500000000000028
31
0
0
LINE
5
293
100
AcDbEntity
8
0
100
AcDbLine
10
32.999999999999986
20
161.51216000000002
30
0
11
44.999999999999986
21
161.51216000000002
31
0
0
LINE
5
294
100
AcDbEntity
8
0
100
AcDbLine
10
55.399999999999977
20
161.51216000000002
30
0
11
67.399999999999963
21
161.51216000000002
31
0
0
LINE
5
295
100
AcDbEntity
8
0
100
AcDbLine
10
77.79999999999994
20
161.51216000000002
30
0
11
89.799999999999926
21
161.51216000000002
31
0
0
LINE
5
296
100
AcDbEntity
8
0
100
AcDbLine
10
100.19999999999993
20
161.51216000000002
30
0
11
112.19999999999992
21
161.51216000000002
31
0
0
ENDSEC
0
SECTION
2
OBJECTS
0
DICTIONARY
5
C
100
AcDbDictionary
3
ACAD_GROUP
350
D
3
ACAD_MLINESTYLE
350
17
0
DICTIONARY
5
D
100
AcDbDictionary
0
DICTIONARY
5
1A
330
C
100
AcDbDictionary
0
DICTIONARY
5
17
100
AcDbDictionary
0
ENDSEC
0
EOF
